<?xml version="1.0" standalone="no"?>
<!DOCTYPE svg PUBLIC "-//W3C//DTD SVG 20010904//EN"
 "http://www.w3.org/TR/2001/REC-SVG-20010904/DTD/svg10.dtd">
<svg version="1.0" xmlns="http://www.w3.org/2000/svg"
 width="512.000000pt" height="512.000000pt" viewBox="0 0 512.000000 512.000000"
 preserveAspectRatio="xMidYMid meet">

<g transform="translate(0.000000,512.000000) scale(0.100000,-0.100000)"
fill="#000000" stroke="none">
<path d="M788 5110 c-358 -61 -655 -334 -760 -697 l-23 -78 0 -1775 0 -1775
23 -78 c97 -335 344 -582 679 -679 l78 -23 1775 0 1775 0 78 23 c335 97 582
344 679 679 l23 78 0 1775 0 1775 -23 78 c-96 332 -337 575 -674 679 l-73 23
-1755 1 c-965 1 -1776 -2 -1802 -6z m2661 -1297 c164 -52 214 -255 92 -373
-53 -52 -107 -72 -191 -72 -83 0 -139 20 -187 68 -59 60 -78 144 -52 238 14
50 83 123 134 141 54 19 142 19 204 -2z m-1081 -5 c9 -12 652 -2218 652 -2239
0 -5 -95 -9 -225 -9 l-224 0 -14 48 c-7 26 -38 138 -67 250 l-54 202 -246 0
-246 0 -59 -232 c-32 -128 -62 -241 -67 -250 -8 -16 -29 -18 -218 -18 -163 0
-210 3 -210 13 0 32 640 2231 652 2238 22 14 314 11 326 -3z m1186 -654 c9
-24 7 -1567 -2 -1582 -7 -9 -55 -12 -208 -10 l-199 3 -3 780 c-1 429 0 790 3
803 5 22 6 22 204 22 172 0 200 -2 205 -16z"/>
<path d="M2175 3029 c-9 -63 -41 -215 -71 -339 -30 -124 -56 -235 -59 -247
l-5 -23 155 0 c132 0 155 2 155 15 0 9 -27 122 -59 253 -33 130 -65 280 -71
332 -7 52 -16 101 -20 109 -4 7 -15 -38 -25 -100z"/>
</g>
</svg>
