<?xml version="1.0" standalone="no"?>
<!DOCTYPE svg PUBLIC "-//W3C//DTD SVG 20010904//EN"
 "http://www.w3.org/TR/2001/REC-SVG-20010904/DTD/svg10.dtd">
<svg version="1.0" xmlns="http://www.w3.org/2000/svg"
 width="512.000000pt" height="512.000000pt" viewBox="0 0 512.000000 512.000000"
 preserveAspectRatio="xMidYMid meet">

<g transform="translate(0.000000,512.000000) scale(0.100000,-0.100000)"
fill="#000000" stroke="none">
<path d="M788 5110 c-358 -61 -655 -334 -760 -697 l-23 -78 0 -1775 0 -1775
23 -78 c97 -335 344 -582 679 -679 l78 -23 1775 0 1775 0 78 23 c335 97 582
344 679 679 l23 78 0 1775 0 1775 -23 78 c-96 332 -337 575 -674 679 l-73 23
-1755 1 c-965 1 -1776 -2 -1802 -6z m1379 -1295 c116 -16 206 -44 279 -86 214
-122 328 -378 311 -699 -21 -378 -194 -616 -512 -702 -65 -17 -109 -21 -237
-22 l-158 -1 0 -372 0 -373 -215 0 -215 0 0 1104 c0 614 4 1107 9 1110 12 8
176 35 268 45 128 14 361 12 470 -4z m1266 -616 c147 -21 317 -82 317 -112 0
-18 -82 -291 -91 -301 -4 -4 -43 3 -86 17 -150 49 -254 59 -318 32 -42 -17
-59 -53 -52 -110 7 -52 61 -102 183 -169 175 -97 255 -163 319 -261 50 -77 68
-138 73 -251 11 -263 -125 -454 -363 -509 -79 -19 -260 -21 -348 -4 -151 28
-297 87 -297 120 0 23 95 298 107 310 6 6 35 -2 74 -20 92 -41 175 -61 260
-61 118 0 168 44 154 136 -9 65 -57 109 -215 204 -163 97 -240 163 -293 248
-47 77 -67 155 -67 265 0 252 119 413 341 461 78 18 206 20 302 5z"/>
<path d="M1878 3433 l-28 -4 0 -365 0 -364 58 -1 c158 -4 233 14 292 72 73 71
100 156 100 312 0 242 -92 348 -305 353 -49 1 -102 0 -117 -3z"/>
</g>
</svg>
